<?xml version="1.0" encoding="utf-8"?>
<!-- Generator: Adobe Illustrator 23.0.3, SVG Export Plug-In . SVG Version: 6.00 Build 0)  -->
<svg version="1.1" id="Layer_1" xmlns="http://www.w3.org/2000/svg" xmlns:xlink="http://www.w3.org/1999/xlink" x="0px" y="0px"
	 viewBox="0 0 50 50" style="enable-background:new 0 0 50 50;" xml:space="preserve">
<style type="text/css">
	.st0{fill:#2980B9;}
	.st1{fill:#037CC6;}
	.st2{fill:#9B59B6;}
	.st3{fill:#27AE60;}
	.st4{fill:#E74C3C;}
	.st5{fill:#34495E;}
	.st6{fill:#D35400;}
	.st7{fill:#E22D2D;}
	.st8{fill:#1ABC9C;}
	.st9{fill:#F39C12;}
	.st10{fill:#E67E22;}
	.st11{fill:url(#SVGID_1_);}
	.st12{fill:url(#SVGID_2_);}
	.st13{fill:url(#SVGID_3_);}
	.st14{fill:url(#SVGID_4_);}
	.st15{fill:url(#SVGID_5_);}
	.st16{fill:url(#SVGID_6_);}
	.st17{fill:url(#SVGID_7_);}
	.st18{fill:url(#SVGID_8_);}
	.st19{fill:url(#SVGID_9_);}
	.st20{fill:url(#SVGID_10_);}
	.st21{fill:url(#SVGID_11_);}
	.st22{fill:url(#SVGID_12_);}
	.st23{fill:url(#SVGID_13_);}
	.st24{fill:url(#SVGID_14_);}
	.st25{fill:url(#SVGID_15_);}
	.st26{fill:url(#SVGID_16_);}
	.st27{fill:url(#SVGID_17_);}
	.st28{fill:url(#SVGID_18_);}
	.st29{fill:url(#SVGID_19_);}
	.st30{fill:url(#SVGID_20_);}
	.st31{fill:url(#SVGID_21_);}
	.st32{fill:url(#SVGID_22_);}
	.st33{fill:url(#SVGID_23_);}
	.st34{fill:url(#SVGID_24_);}
	.st35{fill:url(#SVGID_25_);}
	.st36{fill:url(#SVGID_26_);}
	.st37{fill:url(#SVGID_27_);}
	.st38{fill:url(#SVGID_28_);}
	.st39{fill:url(#SVGID_29_);}
	.st40{fill:url(#SVGID_30_);}
	.st41{fill:url(#SVGID_31_);}
	.st42{fill:url(#SVGID_32_);}
	.st43{fill:#0C0C0C;}
	.st44{fill:none;stroke:#0C0C0C;stroke-width:2;stroke-linecap:round;stroke-linejoin:round;stroke-miterlimit:10;}
	.st45{fill:#FFFFFF;stroke:#0C0C0C;stroke-width:2;stroke-linecap:round;stroke-linejoin:round;stroke-miterlimit:10;}
	.st46{fill:#FB0101;}
	.st47{fill:url(#SVGID_33_);}
	.st48{fill:url(#SVGID_34_);}
	.st49{fill:#403D3D;}
	.st50{fill:#926DDE;}
	.st51{fill:#33CABB;}
</style>
<g>
	<path class="st43" d="M23.1,46.3h-5c-0.3,0-0.6-0.2-0.8-0.4c-0.2-0.3-0.2-0.6-0.1-0.9l5-13.9h-8.6l-4.3,5.2C9,36.6,8.4,36.7,8,36.5
		l-3-1.8c-0.4-0.3-0.6-0.8-0.4-1.3l2.9-6.1l-2.9-6.1c-0.2-0.5-0.1-1,0.4-1.3L8,18c0.4-0.3,1-0.2,1.3,0.2l4.3,5.2h8.6l-5-13.9
		c-0.1-0.3-0.1-0.6,0.1-0.9c0.2-0.3,0.5-0.4,0.8-0.4h5c0.4,0,0.7,0.2,0.9,0.5l7.3,13.9h11.7c2.5,0,4.6,2.1,4.6,4.6
		c0,2.5-2.1,4.6-4.6,4.6H31.2L24,45.8C23.8,46.1,23.4,46.3,23.1,46.3z M19.5,44.3h2.9l7.3-13.9c0.2-0.3,0.5-0.5,0.9-0.5h12.3
		c1.4,0,2.6-1.2,2.6-2.6s-1.2-2.6-2.6-2.6H30.6c-0.4,0-0.7-0.2-0.9-0.5l-7.3-13.9h-2.9l5,13.9c0.1,0.3,0.1,0.6-0.1,0.9
		c-0.2,0.3-0.5,0.4-0.8,0.4H13.1c-0.3,0-0.6-0.1-0.8-0.4l-4.1-4.9l-1.5,0.9l2.6,5.6c0.1,0.1,0.1,0.3,0.1,0.4v0.1
		c0,0.1,0,0.3-0.1,0.4l-2.6,5.6l1.5,0.9l4.1-4.9c0.2-0.2,0.5-0.4,0.8-0.4h10.5c0.3,0,0.6,0.2,0.8,0.4c0.2,0.3,0.2,0.6,0.1,0.9
		L19.5,44.3z"/>
</g>
</svg>
