<?xml version="1.0" encoding="UTF-8" standalone="no"?> <svg id="Layer_1" data-name="Layer 1" xmlns="http://www.w3.org/2000/svg" viewBox="0 0 128 128"><defs><style>.cls-1{fill:#2d3e50;}</style></defs><title>x</title><path class="cls-1" d="M126.458,49.80865a3.82834,3.82834,0,0,0-3.44158-2.6787l-.07-.00454L88.69406,44.64167a9.42326,9.42326,0,0,1-7.92474-5.78056L67.71535,7.113a4.00473,4.00473,0,0,0-7.413.00632L47.21657,38.90681a9.335,9.335,0,0,1-7.9738,5.76625L4.97754,47.1571a3.83874,3.83874,0,0,0-3.433,2.69558,3.88633,3.88633,0,0,0,1.12761,4.26546l26.39325,21.8175a9.39826,9.39826,0,0,1,3.12215,9.40766l-8.1266,33.2117a3.61175,3.61175,0,0,0,.57676,3.271,3.93479,3.93479,0,0,0,3.054,1.54619,3.458,3.458,0,0,0,1.96325-.60736l.12018-.07778,28.92946-17.99574a9.3007,9.3007,0,0,1,9.81731-.046L97.91,122.70674a3.62289,3.62289,0,0,0,1.98269.63826,3.72763,3.72763,0,0,0,2.8464-1.448,4.10881,4.10881,0,0,0,.77325-3.51852L95.4254,85.34882a9.386,9.386,0,0,1,3.17131-9.46008l26.73153-21.83132A3.87416,3.87416,0,0,0,126.458,49.80865Z"/></svg>